<svg xmlns="http://www.w3.org/2000/svg" viewBox="0 0 512 512"><defs>
<linearGradient id="bg" x1="0" y1="0" x2="1" y2="1"><stop offset="0" stop-color="#4338ca"/><stop offset="1" stop-color="#1e1b4b"/></linearGradient>
<radialGradient id="glow" cx="0.2" cy="0.15" r="0.7"><stop offset="0" stop-color="#818cf8" stop-opacity=".55"/><stop offset="1" stop-color="#818cf8" stop-opacity="0"/></radialGradient>
<linearGradient id="hdr" x1="0" y1="0" x2="0" y2="1"><stop offset="0" stop-color="#6366f1"/><stop offset="1" stop-color="#4f46e5"/></linearGradient>
<filter id="sh" x="-20%" y="-20%" width="140%" height="150%"><feDropShadow dx="0" dy="14" stdDeviation="16" flood-color="#0b0a2e" flood-opacity=".45"/></filter>
</defs>
<rect width="512" height="512" fill="url(#bg)"/><rect width="512" height="512" fill="url(#glow)"/><g filter="url(#sh)">
<rect x="96" y="168" width="320" height="276" rx="44" fill="#ffffff"/>
<path d="M96 212 a44 44 0 0 1 44 -44 h232 a44 44 0 0 1 44 44 v34 h-320 z" fill="url(#hdr)"/>
</g><circle cx="150" cy="300" r="9" fill="#c7d2fe"/><circle cx="203" cy="300" r="9" fill="#c7d2fe"/><circle cx="256" cy="300" r="9" fill="#c7d2fe"/><circle cx="309" cy="300" r="9" fill="#c7d2fe"/><circle cx="362" cy="300" r="9" fill="#c7d2fe"/><circle cx="150" cy="344" r="9" fill="#c7d2fe"/><circle cx="203" cy="344" r="9" fill="#c7d2fe"/><circle cx="256" cy="344" r="9" fill="#c7d2fe"/><circle cx="309" cy="344" r="17" fill="#22c55e"/><circle cx="362" cy="344" r="9" fill="#c7d2fe"/><circle cx="150" cy="388" r="9" fill="#c7d2fe"/><circle cx="203" cy="388" r="9" fill="#c7d2fe"/><circle cx="256" cy="388" r="9" fill="#c7d2fe"/><circle cx="309" cy="388" r="9" fill="#c7d2fe"/><circle cx="362" cy="388" r="9" fill="#c7d2fe"/><g transform="translate(256,150) scale(1.0)">
<path d="M-62 -2 L-62 26 Q0 52 62 26 L62 -2 Z" fill="#1e1b4b"/>
<path d="M0 -44 L110 -6 L0 32 L-110 -6 Z" fill="#1e1b4b"/>
<path d="M0 -44 L110 -6 L0 32 L-110 -6 Z" fill="none" stroke="#ffffff" stroke-opacity=".18" stroke-width="3"/>
<path d="M0 -6 L84 4 L84 52" fill="none" stroke="#fbbf24" stroke-width="6" stroke-linecap="round" stroke-linejoin="round"/>
<circle cx="84" cy="58" r="9" fill="#fbbf24"/>
<circle cx="0" cy="-6" r="7" fill="#fbbf24"/>
</g></svg>
